<svg xmlns:xlink="http://www.w3.org/1999/xlink" xmlns="http://www.w3.org/2000/svg" viewBox="0 0 271.2 290.1" aria-hidden="true" focusable="false" role="img" class="Icon-c11n-8-62-4__sc-13llmml-0 hqxkCk" width="271.2"  height="290.1" ><title>Equal Housing Opportunity</title><g stroke="none" fill="#0D4599"><path d="M0 126.8V90.3l10.4-7L30 70l19.2-12.7 19.5-13.2 19.1-12.8 18.8-12.6L133.8.5a3.4 3.4 0 0 1 3.6 0l5.8 3.9 13.7 9.3q13.2 9 26.5 17.8l13.8 9.3 27.4 18.4 26.2 17.6 18.4 12.4a17.7 17.7 0 0 1 2 1.8v36h-17.6v107.8H252l-147-.3H19.8a16.2 16.2 0 0 1-2-.3V126.8zm224.4 71v-.7-89.8a1.8 1.8 0 0 0-.8-1.3L198 88.8l-41-27.5L136 47.5a1.2 1.2 0 0 0-1.6 0l-7.8 5.3-18.5 12.4L91 76.8 73.4 88.6l-25.2 16.9a1.9 1.9 0 0 0-1 1.8v90.5z" fill="#0D4599"></path><path d="M89.1 181v-38.6h93.4V181zM88.9 97.8h93.3v38.5H89z" fill="#0D4599"></path><path d="M21.4 261v-20.3h14.7v2.4h-12v6.2h11.3v2.4H24v7h12.5v2.3zM55.7 258.9a16.5 16.5 0 0 0 3.5 1.8l-.8 2A15.9 15.9 0 0 1 54 260a10 10 0 0 1-5 1.3 9.6 9.6 0 0 1-5-1.4 8.9 8.9 0 0 1-3.4-3.7 12 12 0 0 1-1.3-5.4 12.2 12.2 0 0 1 1.3-5.5 8.6 8.6 0 0 1 3.4-3.8 10 10 0 0 1 5-1.3 9.8 9.8 0 0 1 5.1 1.4 8.7 8.7 0 0 1 3.5 3.7 12.1 12.1 0 0 1 1.2 5.5 12.6 12.6 0 0 1-.8 4.5 9.5 9.5 0 0 1-2.3 3.5zm-6-3.5a10 10 0 0 1 4 2q2.3-2.2 2.3-6.5a10.3 10.3 0 0 0-.8-4.4 6.5 6.5 0 0 0-2.5-2.8 7 7 0 0 0-8.6 1q-2 2-2 6.2a8.6 8.6 0 0 0 2 6 6.5 6.5 0 0 0 5 2.2 6.9 6.9 0 0 0 2.7-.6 8.7 8.7 0 0 0-2.7-1.1zM75.7 240.7h2.7v11.7a14 14 0 0 1-.7 5 6 6 0 0 1-2.5 2.8 8.9 8.9 0 0 1-4.7 1.2 9.8 9.8 0 0 1-4.7-1 5.6 5.6 0 0 1-2.6-2.9 13.6 13.6 0 0 1-.8-5v-11.8h2.7v11.7a11.4 11.4 0 0 0 .5 4 3.7 3.7 0 0 0 1.7 1.9 5.9 5.9 0 0 0 3 .7q3 0 4.2-1.4t1.2-5.2zM80.7 261l7.8-20.3h2.9l8.3 20.3h-3l-2.4-6.1h-8.5l-2.3 6.1zm5.8-8.3h7l-2.2-5.6q-1-2.6-1.4-4.3a26 26 0 0 1-1.1 4zM101.7 261v-20.3h2.7v18h10v2.3zM124.6 261v-20.3h2.7v8.4h10.5v-8.4h2.7V261h-2.7v-9.6h-10.5v9.6zM144.2 251.1q0-5 2.7-7.9a9.2 9.2 0 0 1 7-2.9 9.7 9.7 0 0 1 5 1.4 8.8 8.8 0 0 1 3.5 3.7 12.2 12.2 0 0 1 1.2 5.5 12 12 0 0 1-1.2 5.5 8.5 8.5 0 0 1-3.6 3.7 10.1 10.1 0 0 1-5 1.3 9.6 9.6 0 0 1-5-1.4 9 9 0 0 1-3.5-3.8 11.5 11.5 0 0 1-1.1-5zm2.7 0a8.1 8.1 0 0 0 2 5.9 6.9 6.9 0 0 0 10 0 8.6 8.6 0 0 0 2-6.1 10.4 10.4 0 0 0-.9-4.4 6.4 6.4 0 0 0-2.5-2.8 6.7 6.7 0 0 0-3.6-1 6.9 6.9 0 0 0-4.9 2q-2 1.9-2 6.5zM180.4 240.7h2.7v11.7a14 14 0 0 1-.7 5 6 6 0 0 1-2.5 2.8 8.9 8.9 0 0 1-4.7 1.2 9.8 9.8 0 0 1-4.7-1 5.6 5.6 0 0 1-2.6-2.9 13.6 13.6 0 0 1-.8-5v-11.8h2.7v11.7a11.4 11.4 0 0 0 .5 4 3.7 3.7 0 0 0 1.7 1.9 5.9 5.9 0 0 0 3 .7q2.9 0 4.2-1.4t1.2-5.2zM186.7 254.5l2.5-.2a5.6 5.6 0 0 0 .9 2.5 4.6 4.6 0 0 0 2 1.6 7.7 7.7 0 0 0 3.1.6 7.5 7.5 0 0 0 2.7-.5 3.8 3.8 0 0 0 1.8-1.2 3 3 0 0 0 .6-1.8 2.6 2.6 0 0 0-.6-1.7 4.1 4.1 0 0 0-1.8-1.2 35.7 35.7 0 0 0-3.6-1 18.4 18.4 0 0 1-4-1.2 5.5 5.5 0 0 1-2.1-2 4.6 4.6 0 0 1-.7-2.4 5.2 5.2 0 0 1 .8-3 5.4 5.4 0 0 1 2.6-2 9.7 9.7 0 0 1 3.7-.6 10.2 10.2 0 0 1 4 .7 5.8 5.8 0 0 1 2.7 2.1 6.2 6.2 0 0 1 1 3.2l-2.6.2a4.2 4.2 0 0 0-1.4-2.9 5.5 5.5 0 0 0-3.6-1 5.7 5.7 0 0 0-3.5 1 2.7 2.7 0 0 0-1.2 2 2.3 2.3 0 0 0 .8 1.9q.8.7 4 1.4a26.7 26.7 0 0 1 4.6 1.3 6.2 6.2 0 0 1 2.6 2.1 5 5 0 0 1 .9 2.9 5.5 5.5 0 0 1-1 3 6.1 6.1 0 0 1-2.6 2.3 9.3 9.3 0 0 1-4 .8 11.7 11.7 0 0 1-4.6-.8 6.5 6.5 0 0 1-3-2.4 6.9 6.9 0 0 1-1-3.7zM207 261v-20.3h2.7V261zM214.4 261v-20.3h2.8l10.6 16v-16h2.6V261h-2.7L217 245v16zM244.4 253v-2.3h8.7v7.5a15.2 15.2 0 0 1-4.1 2.4 12.1 12.1 0 0 1-4.4.8 11.6 11.6 0 0 1-5.4-1.3 8.5 8.5 0 0 1-3.7-3.7 11.7 11.7 0 0 1-1.2-5.4 12.6 12.6 0 0 1 1.2-5.6 8.3 8.3 0 0 1 3.6-3.8 11.2 11.2 0 0 1 5.3-1.2 10.6 10.6 0 0 1 4 .7 6.6 6.6 0 0 1 2.8 2 8.8 8.8 0 0 1 1.6 3.3l-2.5.7a7.5 7.5 0 0 0-1.1-2.5 4.7 4.7 0 0 0-2-1.4 7.1 7.1 0 0 0-2.8-.5 8.3 8.3 0 0 0-3.1.5 6 6 0 0 0-2.2 1.5 7 7 0 0 0-1.3 2 10.6 10.6 0 0 0-.8 4.1 10 10 0 0 0 1 4.5 6 6 0 0 0 2.7 2.8 8.4 8.4 0 0 0 3.8.9 9 9 0 0 0 3.4-.7 8.8 8.8 0 0 0 2.5-1.5v-3.7z" fill="#0D4599"></path><path d="M18.8 278.1q0-5.9 3.2-9.2a10.8 10.8 0 0 1 8.2-3.4 11.4 11.4 0 0 1 5.9 1.6 10.3 10.3 0 0 1 4 4.4 14.2 14.2 0 0 1 1.4 6.3 14 14 0 0 1-1.5 6.5 10 10 0 0 1-4 4.3 11.8 11.8 0 0 1-5.9 1.5 11.2 11.2 0 0 1-6-1.6 10.4 10.4 0 0 1-4-4.4 13.4 13.4 0 0 1-1.3-6zm3.2 0a9.5 9.5 0 0 0 2.3 6.8 7.6 7.6 0 0 0 5.8 2.5A7.6 7.6 0 0 0 36 285q2.3-2.5 2.3-7a12.2 12.2 0 0 0-1-5.1 7.5 7.5 0 0 0-2.9-3.4 7.8 7.8 0 0 0-4.2-1.2 8 8 0 0 0-5.8 2.3q-2.4 2.3-2.4 7.7zM45.6 289.7v-23.8h9a21.6 21.6 0 0 1 3.5.3 7.2 7.2 0 0 1 3 1 5.8 5.8 0 0 1 1.9 2.4 7.7 7.7 0 0 1-1.2 8.3q-2 2.1-7 2.1h-6.1v9.7zm3.1-12.5h6.1q3.1 0 4.4-1.1a4 4 0 0 0 1.3-3.2 4.3 4.3 0 0 0-.8-2.6 3.5 3.5 0 0 0-2-1.4 13.4 13.4 0 0 0-3-.2h-6zM67.7 289.7v-23.8h9a21.6 21.6 0 0 1 3.6.3 7.2 7.2 0 0 1 3 1 5.8 5.8 0 0 1 1.8 2.4 7.7 7.7 0 0 1-1.2 8.3q-2 2.1-7 2.1h-6v9.7zm3.1-12.5H77q3 0 4.3-1.1a4 4 0 0 0 1.3-3.2 4.3 4.3 0 0 0-.8-2.6 3.5 3.5 0 0 0-2-1.4 13.4 13.4 0 0 0-2.9-.2h-6zM88.9 278.1q0-5.9 3.2-9.2a10.8 10.8 0 0 1 8.2-3.4 11.4 11.4 0 0 1 5.9 1.6 10.3 10.3 0 0 1 4 4.4 14.2 14.2 0 0 1 1.4 6.3 14 14 0 0 1-1.4 6.5 10 10 0 0 1-4.2 4.3 11.8 11.8 0 0 1-5.7 1.5 11.2 11.2 0 0 1-6-1.6 10.4 10.4 0 0 1-4-4.4 13.4 13.4 0 0 1-1.4-6zm3.2 0a9.5 9.5 0 0 0 2.3 6.8 8 8 0 0 0 11.7 0q2.3-2.5 2.3-7a12.2 12.2 0 0 0-1-5.1 7.5 7.5 0 0 0-2.9-3.4 7.8 7.8 0 0 0-4.2-1.2 8 8 0 0 0-5.8 2.3q-2.4 2.3-2.4 7.7zM115.7 289.7v-23.8h10.6a14 14 0 0 1 4.8.7 5.3 5.3 0 0 1 2.6 2.2 6.7 6.7 0 0 1 1 3.6 6 6 0 0 1-1.6 4.3 8.3 8.3 0 0 1-5 2.2 8.1 8.1 0 0 1 1.8 1.2 16.4 16.4 0 0 1 2.6 3.1l4.2 6.5h-4l-3.1-5-2.3-3.2a7.1 7.1 0 0 0-1.6-1.6 4.7 4.7 0 0 0-1.4-.6 9.4 9.4 0 0 0-1.8-.2H119v10.6zm3.2-13.3h6.7a10.1 10.1 0 0 0 3.4-.4 3.6 3.6 0 0 0 1.8-1.5 3.9 3.9 0 0 0 .7-2 3.5 3.5 0 0 0-1.2-2.9 5.7 5.7 0 0 0-4-1H119zM145 289.7v-21h-7.7V266H156v2.8h-7.9v21zM175 266h3v13.7a16.2 16.2 0 0 1-.7 5.7 7 7 0 0 1-3 3.4 10.4 10.4 0 0 1-5.5 1.3 11.4 11.4 0 0 1-5.5-1.2 6.6 6.6 0 0 1-3-3.3 15.9 15.9 0 0 1-1-6V266h3.2v13.7a13.4 13.4 0 0 0 .6 4.6 4.4 4.4 0 0 0 2 2.3 6.9 6.9 0 0 0 3.4.8q3.5 0 5-1.6t1.4-6zM183.3 289.7v-23.8h3.2l12.5 18.7v-18.7h3v23.8h-3.2L186.3 271v18.7zM207.8 289.7v-23.8h3.2v23.8zM222.6 289.7v-21h-7.9V266h18.9v2.8h-7.9v21zM243.5 289.7v-10l-9.2-13.8h3.8l4.7 7.2 2.4 4 2.6-4.2 4.6-7h3.7l-9.5 13.7v10.1z" fill="#0D4599"></path></g></svg>