<svg xmlns:xlink="http://www.w3.org/1999/xlink" xmlns="http://www.w3.org/2000/svg" viewBox="0 0 32 32" aria-hidden="true" focusable="false" role="img" class="Icon-c11n-8-62-4__sc-13llmml-0 hqxkCk" width="32"  height="32" ><title>Instagram</title><g stroke="none" fill="#0D4599"><path d="M21,2H11a9,9,0,0,0-9,9V21a9,9,0,0,0,9,9H21a9,9,0,0,0,9-9V11A9,9,0,0,0,21,2Zm7,19a7,7,0,0,1-7,7H11a7,7,0,0,1-7-7V11a7,7,0,0,1,7-7H21a7,7,0,0,1,7,7Z" fill="#0D4599"></path><path d="M16,9a7,7,0,1,0,7,7A7,7,0,0,0,16,9Zm0,12a5,5,0,1,1,5-5A5,5,0,0,1,16,21Z" fill="#0D4599"></path><circle cx="23.5" cy="8.5" r="1.5" fill="#0D4599"></circle></g></svg>